<svg preserveAspectRatio="xMidYMax meet" viewBox="0 0 268 25" version="1.1" xmlns="http://www.w3.org/2000/svg" xmlns:xlink="http://www.w3.org/1999/xlink">
    <title>Sushi Daily Logo Blue</title>
    <g id="Symbols" stroke="none" stroke-width="1" fill="none" fill-rule="evenodd">
        <g id="Digital-Assets" transform="translate(-372.000000, -674.000000)" fill-rule="nonzero">
            <g id="x_logo/secondary/blue" transform="translate(372.000000, 674.000000)">
                <g id="logo-secondary-blue" transform="translate(0.009487, 0.510204)">
                    <path d="M12.92,6.25006931 C12.4895575,5.7135482 11.9166946,5.31498869 11.27,5.10211013 C10.6390862,4.86310366 9.97290466,4.73542979 9.3,4.72455911 C8.92139517,4.72701456 8.54417578,4.77149394 8.175,4.85721217 C7.79554258,4.94336407 7.42899684,5.08062141 7.085,5.26537544 C6.75495142,5.44366835 6.46931318,5.69673902 6.25,6.00517135 C6.03072215,6.33204695 5.91868492,6.72146208 5.93,7.11741625 C5.90197722,7.75051137 6.19226827,8.35448295 6.7,8.71945707 C7.29776729,9.13078249 7.9513773,9.45050545 8.64,9.66843666 C9.42,9.92694006 10.2533333,10.1888448 11.14,10.4541509 C12.017765,10.7107508 12.8583947,11.0847452 13.64,11.5663958 C14.4222665,12.0499697 15.0858379,12.709632 15.58,13.4949673 C16.1382541,14.4762138 16.4057185,15.6015775 16.35,16.7347632 C16.3756251,17.8996 16.1342099,19.0544377 15.645,20.1072122 C15.1956472,21.0416952 14.5422275,21.8585571 13.735,22.4949673 C12.9191413,23.1325007 11.9905521,23.6036723 11,23.8827224 C9.90959627,24.1935236 8.78212898,24.3480653 7.65,24.341906 C6.25351616,24.3539538 4.86525756,24.1227442 3.545,23.6582326 C2.22780713,23.1671464 1.02185256,22.4086735 0,21.4286407 L3.56,17.4337428 C4.06483023,18.13033 4.73150248,18.6878773 5.5,19.0561918 C6.63210073,19.6295209 7.92496179,19.7811169 9.155,19.4847632 C9.54856187,19.3967264 9.92637782,19.2469906 10.275,19.0408856 C10.5956351,18.8564631 10.8709227,18.599984 11.08,18.2908856 C11.2856456,17.9697006 11.3919113,17.5928465 11.385,17.209253 C11.406617,16.5598274 11.1129025,15.9413204 10.6,15.5561918 C9.99576881,15.1165303 9.32992596,14.7725143 8.625,14.5357836 C7.835,14.2551714 6.98,13.9694571 6.06,13.6888448 C5.16396386,13.4096951 4.30436856,13.0208077 3.5,12.5306816 C2.71302818,12.0556021 2.03997779,11.4071645 1.53,10.6327224 C0.966902491,9.70163605 0.693232951,8.61841266 0.745,7.52557952 C0.718941871,6.39231177 0.964378963,5.26968314 1.46,4.25517135 C1.92418255,3.33470031 2.58143132,2.52990589 3.385,1.8980285 C4.2131793,1.25129291 5.15269645,0.768486439 6.155,0.474559109 C7.20696463,0.157975635 8.2982401,-0.00183889443 9.395,0 C10.6551876,-0.00413886713 11.9089555,0.183293522 13.115,0.556191762 C14.3137823,0.931707866 15.4189667,1.56693136 16.355,2.41843666 L12.92,6.25006931 Z" id="Path" fill="#001E42"></path>
                    <path d="M44.055,14.8214979 C44.0697709,16.1133912 43.8633368,17.3979927 43.445,18.6174163 C42.6610245,20.9390867 40.8944709,22.7772948 38.635,23.6225183 C37.3130542,24.1247189 35.9103426,24.368756 34.5,24.341906 C33.0797646,24.3704157 31.6669232,24.1263867 30.335,23.6225183 C28.0755291,22.7772948 26.3089755,20.9390867 25.525,18.6174163 C25.1066632,17.3979927 24.9002291,16.1133912 24.915,14.8214979 L24.915,0.586804007 L29.915,0.586804007 L29.915,14.6276203 C29.9100884,15.3075763 30.023515,15.9830226 30.25,16.6225183 C30.4605328,17.2104227 30.7834525,17.7497783 31.2,18.209253 C31.6093709,18.6585455 32.1068155,19.0149061 32.66,19.2551714 C33.2412161,19.5092805 33.8677014,19.6378295 34.5,19.6327224 C35.1291587,19.6388015 35.7525745,19.5101833 36.33,19.2551714 C36.8750181,19.010638 37.3651107,18.654668 37.77,18.209253 C38.1867105,17.7508353 38.508166,17.2110844 38.715,16.6225183 C38.9459257,15.9840866 39.0611337,15.3081211 39.055,14.6276203 L39.055,0.586804007 L44.055,0.586804007 L44.055,14.8214979 Z" id="Path" fill="#001E42"></path>
                    <path d="M64.705,6.25006931 C64.2765863,5.70790659 63.7035203,5.30388975 63.055,5.08680401 C62.414458,4.84494947 61.7379423,4.71723987 61.055,4.70925299 C60.6780631,4.7119973 60.3025313,4.75647538 59.935,4.84190605 C59.5552881,4.92717091 59.1886286,5.06447087 58.845,5.25006931 C58.5149514,5.42836223 58.2293132,5.68143289 58.01,5.98986523 C57.7907222,6.31674082 57.6786849,6.70615596 57.69,7.10211013 C57.6689272,7.74344781 57.975594,8.349982 58.5,8.70415095 C59.0977673,9.11547636 59.7513773,9.43519933 60.44,9.65313054 C61.22,9.91163394 62.0533333,10.1735387 62.94,10.4388448 C63.8179446,10.6949346 64.6586387,11.0689577 65.44,11.5510897 C66.2222665,12.0346636 66.8858379,12.6943259 67.38,13.4796611 C67.9358561,14.4618889 68.2031464,15.58652 68.15,16.7194571 C68.1756251,17.8842938 67.9342099,19.0391316 67.445,20.091906 C66.9940052,21.0253131 66.3408655,21.841825 65.535,22.4796611 C64.7039154,23.1291037 63.7560021,23.6057992 62.745,23.8827224 C60.2931479,24.5637514 57.6982287,24.4856115 55.29,23.6582326 C53.9870345,23.1622473 52.7950858,22.4040279 51.785,21.4286407 L55.345,17.4337428 C55.8485844,18.1282515 56.5135436,18.6840498 57.28,19.0510897 C58.413902,19.6243727 59.7083076,19.7759424 60.94,19.4796611 C61.3335619,19.3916243 61.7113778,19.2418886 62.06,19.0357836 C62.380196,18.8526676 62.6541197,18.5958642 62.86,18.2857836 C63.067967,17.9656881 63.1744453,17.5880804 63.165,17.2041509 C63.1892728,16.5541545 62.8949874,15.9344452 62.38,15.5510897 C61.7776268,15.1113473 61.1134175,14.7673044 60.41,14.5306816 C59.62,14.2500693 58.765,13.964355 57.845,13.6837428 C56.9476995,13.408209 56.0864229,13.0227469 55.28,12.5357836 C54.4834628,12.0625571 53.8002474,11.4141996 53.28,10.6378244 C52.7199905,9.7037134 52.4482218,8.61934073 52.5,7.52557952 C52.4754919,6.39188718 52.7226502,5.26923628 53.22,4.25517135 C53.686756,3.33644242 54.3435747,2.53217467 55.145,1.8980285 C55.9815619,1.24990157 56.9295198,0.76711477 57.94,0.474559109 C58.9917993,0.157202544 60.0831857,-0.00262822602 61.18,1.18099971e-05 C62.4401611,-0.00375977347 63.6938743,0.183664436 64.9,0.556191762 C66.0977607,0.930588989 67.2015369,1.56598362 68.135,2.41843666 L64.705,6.25006931 Z" id="Path" fill="#001E42"></path>
                    <polygon id="Path" fill="#001E42" points="76.7 0.586804007 81.7 0.586804007 81.7 9.22966115 91.415 9.22966115 91.415 0.586804007 96.42 0.586804007 96.42 23.7551714 91.415 23.7551714 91.415 13.7398652 81.7 13.7398652 81.7 23.7551714 76.7 23.7551714"></polygon>
                    <rect id="Rectangle" fill="#001E42" x="105.78" y="0.586804007" width="5" height="23.1632653"></rect>
                    <path d="M160,0.586593929 L167.5,0.586593929 C169.245024,0.57901154 170.984487,0.788032224 172.68,1.20925299 C174.225946,1.59094703 175.681262,2.28487989 176.96,3.25006931 C178.195975,4.20004759 179.190488,5.43881441 179.86,6.86231421 C180.619846,8.54840956 180.991008,10.3897353 180.945,12.2449673 C180.978671,13.9578366 180.622683,15.6553463 179.905,17.2041509 C179.232898,18.5882594 178.274119,19.8068405 177.095,20.7755795 C175.887172,21.7675493 174.506176,22.5171501 173.025,22.9847632 C171.4602,23.4927872 169.827075,23.7475757 168.185,23.7400351 L160,23.7400351 L160,0.586593929 Z M165,19.0408856 L167.595,19.0408856 C168.67993,19.0497552 169.762194,18.9299033 170.82,18.6837428 C171.751712,18.4722928 172.630252,18.0657543 173.4,17.4898652 C174.141645,16.9155647 174.73112,16.1614918 175.115,15.2959877 C175.559168,14.2489015 175.772528,13.1150448 175.74,11.9745591 C175.763369,10.9516643 175.549201,9.93764349 175.115,9.01537544 C174.719524,8.19871243 174.14252,7.48763477 173.43,6.93884482 C172.680431,6.37123856 171.83208,5.9539884 170.93,5.70925299 C169.95294,5.43413385 168.943568,5.29680433 167.93,5.30099245 L165,5.30099245 L165,19.0408856 Z" id="Shape" fill="#001E42"></path>
                    <path d="M195,0.586804007 L199.14,0.586804007 L209,23.7551714 L203.35,23.7551714 L201.395,18.8470081 L192.575,18.8470081 L190.685,23.7551714 L185.185,23.7551714 L195,0.586804007 Z M196.925,7.33170197 L194.17,14.5255795 L199.715,14.5255795 L196.925,7.33170197 Z" id="Shape" fill="#001E42"></path>
                    <rect id="Rectangle" fill="#001E42" x="216.015" y="0.586804007" width="5.005" height="23.1632653"></rect>
                    <polygon id="Path" fill="#001E42" points="230.575 0.586804007 235.575 0.586804007 235.575 19.0408856 244.84 19.0408856 244.84 23.7551714 230.575 23.7551714"></polygon>
                    <polygon id="Path" fill="#001E42" points="254.43 13.8725183 245.9 0.586804007 252.12 0.586804007 256.93 9.26027339 262.03 0.586804007 267.96 0.586804007 259.43 13.8725183 259.43 23.7551714 254.43 23.7551714"></polygon>
                    <path d="M133.845,18.4490489 L133.845,19.3265999 L135.645,19.3265999 L135.645,20.5765999 L133.845,20.5765999 L133.845,22.331702 C133.845,23.0306816 133.73,23.4133346 133.255,23.6174163 C132.61286,23.8425982 131.930803,23.9243754 131.255,23.8572122 C131.161918,23.3770106 131.005495,22.9118945 130.79,22.4745591 C131.35,22.5000693 131.99,22.5000693 132.18,22.4745591 C132.37,22.4490489 132.405,22.4388448 132.405,22.2704775 L132.405,20.5765999 L128.945,20.5765999 C128.723589,20.9500016 128.478045,21.307937 128.21,21.6480285 L129.33,20.9184367 C129.860164,21.4228758 130.337711,21.9819801 130.755,22.586804 L129.545,23.3929265 C129.153863,22.7690379 128.705154,22.1847458 128.205,21.6480285 C127.625324,22.3668778 126.938628,22.9883923 126.17,23.4898652 C125.770611,23.0813635 125.342832,22.7028279 124.89,22.3572122 C125.716377,21.9057381 126.448408,21.2939506 127.045,20.5561918 L125.365,20.5561918 L125.365,19.3265999 L127.865,19.3265999 C128.01,19.0510897 128.15,18.7500693 128.28,18.4490489 L125.14,18.4490489 L125.14,17.2245591 L128.73,17.2245591 C128.805,16.9949673 128.875,16.7653754 128.935,16.5255795 L126.3,16.5255795 L126.3,15.3725183 L129.215,15.3725183 C129.25,15.1684367 129.295,14.9490489 129.33,14.7347632 L125.8,14.7347632 L125.8,13.5357836 L129.5,13.5357836 C129.535,13.2449673 129.56,12.959253 129.595,12.6684367 L131.135,12.8010897 C131.11,13.0510897 131.075,13.3112938 131.04,13.5357836 L135.15,13.5357836 L135.15,14.7347632 L130.86,14.7347632 C130.825,14.9490489 130.79,15.1684367 130.755,15.3725183 L134.725,15.3725183 L134.725,16.5255795 L130.5,16.5255795 C130.445,16.7653754 130.385,16.9949673 130.325,17.2245591 L135.825,17.2245591 L135.825,18.4490489 L133.845,18.4490489 Z M132.415,18.4490489 L129.95,18.4490489 C129.84,18.7500693 129.725,19.0408856 129.595,19.3265999 L132.415,19.3265999 L132.415,18.4490489 Z" id="Shape" fill="#E9454C"></path>
                    <path d="M146.365,22.091906 C146.365,22.9082326 146.22,23.341906 145.71,23.591906 C145.2,23.841906 144.465,23.8827224 143.415,23.8674163 C143.330265,23.337688 143.173767,22.8225528 142.95,22.336804 C143.506303,22.365859 144.063697,22.365859 144.62,22.336804 C144.835,22.336804 144.92,22.2806816 144.92,22.0765999 L144.92,14.7602734 L136.65,14.7602734 L136.65,13.4031305 L146.365,13.4031305 L146.365,22.091906 Z M143.735,16.8623142 L136.765,16.8623142 L136.765,15.6123142 L143.735,15.6123142 L143.735,16.8623142 Z M138.735,21.8163958 L138.735,22.6786407 L137.36,22.6786407 L137.36,17.7500693 L143.105,17.7500693 L143.105,21.831702 L138.735,21.8163958 Z M138.735,20.586804 L141.735,20.586804 L141.735,18.9796611 L138.735,18.9796611 L138.735,20.586804 Z" id="Shape" fill="#E9454C"></path>
                    <path d="M134.19,7.60721217 C134.155,8.11741625 134.105,8.58170197 134.07,8.96435503 L135.57,8.96435503 L135.57,10.2041509 L133.9,10.2041509 C133.841676,10.5660591 133.714265,10.912756 133.525,11.2245591 C133.281237,11.5620886 132.900547,11.7685166 132.49,11.7857836 C131.946116,11.8361219 131.398884,11.8361219 130.855,11.7857836 C130.822914,11.4115639 130.710231,11.0491931 130.525,10.7245591 C130.961837,10.7714392 131.400754,10.7952805 131.84,10.7959877 C132.016617,10.8109872 132.187819,10.7294626 132.29,10.581702 C132.377541,10.4639191 132.438958,10.3281341 132.47,10.1837428 L127.67,10.1837428 C127.635,10.4235387 127.585,10.6531305 127.55,10.8572122 L126.13,10.7602734 C126.31,9.88272237 126.5,8.76537544 126.675,7.57659993 L124.91,7.57659993 L124.91,6.32149788 L126.865,6.32149788 C126.97,5.53068156 127.065,4.74496727 127.135,4.01537544 C126.842518,4.37651313 126.526821,4.71740146 126.19,5.0357836 C125.848615,4.66552448 125.445743,4.35979528 125,4.13272237 C126.109131,3.18107882 126.968355,1.9623835 127.5,0.586804007 L129,0.841906048 C128.87,1.12762033 128.74,1.41843666 128.6,1.69394686 L135.305,1.69394686 L135.305,2.96945707 L127.885,2.96945707 C127.71,3.24496727 127.51,3.52047748 127.305,3.7857836 L134.39,3.7857836 C134.39,3.7857836 134.39,4.22966115 134.39,4.40823258 C134.355,5.11741625 134.33,5.74496727 134.295,6.32149788 L135.87,6.32149788 L135.87,7.60721217 L134.19,7.60721217 Z M128.065,7.60721217 C127.995,8.07659993 127.925,8.5357836 127.865,8.96435503 L129.56,8.96435503 C129.615,8.54598768 129.675,8.08680401 129.735,7.60721217 L128.065,7.60721217 Z M128.41,5.05619176 C128.35,5.47455911 128.3,5.90823258 128.245,6.34190605 L129.865,6.34190605 C129.915,5.90823258 129.95,5.47455911 129.985,5.05619176 L128.41,5.05619176 Z M132.675,8.98476319 C132.72,8.61231421 132.77,8.15823258 132.805,7.62762033 L131.025,7.62762033 C130.965,8.10721217 130.92,8.56639584 130.86,8.98476319 L132.675,8.98476319 Z M132.885,6.34190605 C132.911667,5.94394686 132.936667,5.51537544 132.96,5.05619176 L131.285,5.05619176 C131.25,5.47455911 131.215,5.90823258 131.17,6.34190605 L132.885,6.34190605 Z" id="Shape" fill="#E9454C"></path>
                    <path d="M145.315,1.40823258 L145.315,11.2245591 L143.875,11.2245591 L143.875,10.5102734 L138.875,10.5102734 L138.875,11.2245591 L137.5,11.2245591 L137.5,1.40823258 L145.315,1.40823258 Z M138.87,5.22966115 L143.87,5.22966115 L143.87,2.77557952 L138.87,2.77557952 L138.87,5.22966115 Z M143.87,6.57149788 L138.87,6.57149788 L138.87,9.12251829 L143.87,9.12251829 L143.87,6.57149788 Z" id="Shape" fill="#E9454C"></path>
                </g>
            </g>
        </g>
    </g>
</svg>